<svg width="149" height="55" viewBox="0 0 149 55" fill="none" xmlns="http://www.w3.org/2000/svg">
<path fill-rule="evenodd" clip-rule="evenodd" d="M19.8891 26.4444C24.4301 26.4444 28.1114 22.7632 28.1114 18.2222C28.1114 13.6812 24.4301 10 19.8891 10C15.3481 10 11.6669 13.6812 11.6669 18.2222C11.6669 22.7632 15.3481 26.4444 19.8891 26.4444ZM19.8891 36.4444C22.2762 36.4444 24.556 35.9855 26.6453 35.1509C27.5574 44.3614 35.3275 51.5555 44.778 51.5555C54.8418 51.5555 63.0002 43.3972 63.0002 33.3333C63.0002 23.2695 54.8418 15.1111 44.778 15.1111C42.3909 15.1111 40.111 15.5701 38.0218 16.4046C37.1097 7.19413 29.3396 0 19.8891 0C9.82527 0 1.66691 8.15837 1.66691 18.2222C1.66691 28.2861 9.82527 36.4444 19.8891 36.4444ZM44.778 41.5555C49.319 41.5555 53.0002 37.8743 53.0002 33.3333C53.0002 28.7923 49.319 25.1111 44.778 25.1111C40.237 25.1111 36.5557 28.7923 36.5557 33.3333C36.5557 37.8743 40.237 41.5555 44.778 41.5555ZM1.57315 49.689C0.534558 51.091 0 52.5937 0 54.1111H20.6667V42.5556C17.9527 42.5556 15.2653 42.8545 12.7579 43.4352C10.2505 44.0159 7.9722 44.8671 6.05312 45.9401C4.13405 47.0132 2.61175 48.287 1.57315 49.689ZM80.92 28.91V38H78.25V22.64H80.86V24.71C81.4 23.9 82.09 23.3 82.93 22.85C83.77 22.43 84.7 22.22 85.69 22.22C86.83 22.22 87.82 22.49 88.63 23.03C89.44 23.57 90.04 24.32 90.49 25.25C90.94 26.18 91.15 27.26 91.15 28.49V38H88.48V29C88.48 27.65 88.18 26.6 87.58 25.82C86.98 25.07 86.11 24.68 84.94 24.68C84.22 24.68 83.56 24.83 82.96 25.16C82.33 25.49 81.85 25.97 81.49 26.6C81.1 27.23 80.92 28.01 80.92 28.91ZM99.7957 17.8815C99.706 17.6455 99.5661 17.4302 99.3759 17.24C99.0159 16.88 98.5659 16.7 98.0559 16.7C97.5459 16.7 97.0959 16.88 96.7359 17.24C96.5119 17.464 96.3576 17.7228 96.2729 18.0092C96.0994 17.713 96 17.3681 96 17C96 15.8954 96.8954 15 98 15C99.1046 15 100 15.8954 100 17C100 17.3164 99.9265 17.6156 99.7957 17.8815ZM96.7059 38V22.64H99.3759V38H96.7059ZM107.754 28.91V38H105.084V22.64H107.694V24.71C108.234 23.9 108.924 23.3 109.764 22.85C110.604 22.43 111.534 22.22 112.524 22.22C113.664 22.22 114.654 22.49 115.464 23.03C116.274 23.57 116.874 24.32 117.324 25.25C117.774 26.18 117.984 27.26 117.984 28.49V38H115.314V29C115.314 27.65 115.014 26.6 114.414 25.82C113.814 25.07 112.944 24.68 111.774 24.68C111.054 24.68 110.394 24.83 109.794 25.16C109.164 25.49 108.684 25.97 108.324 26.6C107.934 27.23 107.754 28.01 107.754 28.91ZM129.059 38.12C127.589 38.12 126.479 37.7 125.699 36.89C124.919 36.08 124.529 34.91 124.529 33.35V25.04H121.799V22.64H124.529V17.75C125.399 17.69 126.299 17.51 127.199 17.24V22.64H130.559V25.04H127.199V33.11C127.199 33.95 127.409 34.58 127.829 35.03C128.219 35.48 128.789 35.72 129.539 35.72H130.559V38.12H129.059ZM136.673 44.15L139.223 38L133.133 22.64H136.163L140.663 34.85L145.103 22.64H148.013L139.523 44.15H136.673ZM102 17C102 19.2091 100.209 21 98 21C95.7909 21 94 19.2091 94 17C94 14.7909 95.7909 13 98 13C100.209 13 102 14.7909 102 17Z" fill="white"/>
</svg>
